<?xml version="1.0" encoding="UTF-8"?><svg id="a" xmlns="http://www.w3.org/2000/svg" width="183.22221mm" height="27.58729mm" viewBox="0 0 519.37005 78.2002"><path d="M52.80029,41.40039h12.2998v27.8999c-3.6001,2.86719-7.7998,5.06689-12.6001,6.6001-4.7998,1.53271-9.73438,2.2998-14.7998,2.2998-7.13428,0-13.56738-1.5498-19.30029-4.6499-5.73438-3.1001-10.23438-7.38281-13.5-12.8501C1.63281,55.23438,0,49.06738,0,42.2002c0-6.86572,1.63281-13.03271,4.8999-18.5,3.26562-5.46582,7.7832-9.75,13.55029-12.8501,5.76562-3.1001,12.25-4.6499,19.44971-4.6499,5.86572,0,11.2002,.96729,16,2.8999,4.80029,1.93457,8.83301,4.76709,12.1001,8.5l-8.19971,8c-5.33447-5.33252-11.76758-8-19.30029-8-4.93408,0-9.31689,1.03467-13.1499,3.1001-3.83447,2.06738-6.83447,4.96729-9,8.7002-2.16699,3.73438-3.25,8-3.25,12.7998,0,4.66699,1.08301,8.86719,3.25,12.6001,2.16553,3.73438,5.16553,6.66699,9,8.7998,3.83301,2.13428,8.18262,3.2002,13.0498,3.2002,5.46582,0,10.26562-1.2002,14.40039-3.6001v-21.7998Z" fill="#3863ad"/><path d="M81.59863,12.8501c-1.53418-1.43262-2.2998-3.21533-2.2998-5.3501,0-2.13281,.76562-3.91553,2.2998-5.34961,1.5332-1.43311,3.43311-2.15039,5.7002-2.15039,2.26562,0,4.16553,.68457,5.7002,2.05029,1.53271,1.36719,2.2998,3.08447,2.2998,5.1499,0,2.2002-.75,4.0498-2.25,5.5498s-3.41699,2.25-5.75,2.25c-2.26709,0-4.16699-.71533-5.7002-2.1499Zm-.59961,10.9502h12.5v53.3999h-12.5V23.80029Z" fill="#e21645"/><path d="M141.99707,74.30029c-1.4668,1.19971-3.25,2.1001-5.34961,2.69971-2.1001,.6001-4.31738,.90039-6.65039,.90039-5.86719,0-10.3999-1.5332-13.59961-4.6001-3.2002-3.06592-4.80029-7.53271-4.80029-13.3999v-25.7002h-8.7998v-10h8.7998V12h12.5v12.2002h14.30029v10h-14.30029v25.3999c0,2.6001,.63281,4.58447,1.8999,5.9502,1.26562,1.36719,3.1001,2.0498,5.5,2.0498,2.80029,0,5.13281-.73291,7-2.19971l3.5,8.8999Z" fill="#609f31"/><path d="M215.69727,7.2002V77.2002h-13v-30h-36.2002v30h-13V7.2002h13v28.8999h36.2002V7.2002h13Z" fill="#3763ad"/><path d="M284.99658,23.80029v53.3999h-11.8999v-6.7998c-2,2.3999-4.5,4.25-7.5,5.5498s-6.23438,1.9502-9.7002,1.9502c-7.13428,0-12.75-1.98291-16.84961-5.9502-4.1001-3.96582-6.15039-9.8501-6.15039-17.6499V23.80029h12.5v28.7998c0,4.80029,1.08301,8.38428,3.25,10.75,2.16602,2.36719,5.25,3.55029,9.25,3.55029,4.46582,0,8.01562-1.38281,10.65039-4.15039,2.63281-2.76562,3.94971-6.75,3.94971-11.94971V23.80029h12.5Z" fill="#609f31"/><path d="M344.94678,26.6001c4.1001,2.26709,7.31543,5.46729,9.6499,9.6001,2.33301,4.13428,3.5,8.8999,3.5,14.2998,0,5.40039-1.16699,10.18457-3.5,14.3501-2.33447,4.16748-5.5498,7.38428-9.6499,9.6499-4.1001,2.26758-8.75,3.40039-13.9502,3.40039-3.66699,0-7.01709-.63477-10.0498-1.90039-3.03418-1.26562-5.58447-3.16553-7.6499-5.69971v6.8999h-11.8999V3h12.5V30.30029c2.13281-2.33301,4.6499-4.1001,7.5498-5.30029,2.8999-1.19971,6.08301-1.7998,9.5498-1.7998,5.2002,0,9.8501,1.13428,13.9502,3.3999Zm-4,36c2.96582-3.06543,4.4502-7.1001,4.4502-12.1001s-1.48438-9.03271-4.4502-12.09961c-2.96729-3.06592-6.75-4.6001-11.3501-4.6001-3,0-5.69971,.68408-8.1001,2.0498-2.3999,1.36719-4.2998,3.31738-5.69971,5.8501-1.3999,2.53418-2.1001,5.46729-2.1001,8.7998,0,3.33447,.7002,6.26758,2.1001,8.80029,1.3999,2.53418,3.2998,4.48438,5.69971,5.8501,2.40039,1.36719,5.1001,2.0498,8.1001,2.0498,4.6001,0,8.38281-1.53271,11.3501-4.6001Z" fill="#e21645"/><path d="M413.5459,26.6001c4.09961,2.26709,7.31543,5.46729,9.64941,9.6001,2.33301,4.13428,3.5,8.8999,3.5,14.2998,0,5.40039-1.16699,10.18457-3.5,14.3501-2.33398,4.16748-5.5498,7.38428-9.64941,9.6499-4.1001,2.26758-8.75,3.40039-13.9502,3.40039-3.66699,0-7.01709-.63477-10.0498-1.90039-3.03418-1.26562-5.58447-3.16553-7.6499-5.69971v6.8999h-11.8999V3h12.5V30.30029c2.13281-2.33301,4.6499-4.1001,7.5498-5.30029,2.8999-1.19971,6.08301-1.7998,9.5498-1.7998,5.2002,0,9.8501,1.13428,13.9502,3.3999Zm-4,36c2.96582-3.06543,4.4502-7.1001,4.4502-12.1001s-1.48438-9.03271-4.4502-12.09961c-2.96729-3.06592-6.75-4.6001-11.3501-4.6001-3,0-5.69971,.68408-8.1001,2.0498-2.3999,1.36719-4.2998,3.31738-5.69971,5.8501-1.3999,2.53418-2.1001,5.46729-2.1001,8.7998,0,3.33447,.7002,6.26758,2.1001,8.80029,1.3999,2.53418,3.2998,4.48438,5.69971,5.8501,2.40039,1.36719,5.1001,2.0498,8.1001,2.0498,4.6001,0,8.38281-1.53271,11.3501-4.6001Z" fill="#fab511"/><path d="M438.59473,3h12.5V77.2002h-12.5V3Z" fill="#609f31"/><path d="M516.98818,44.01059l-38.81994,15.76879c2.15931,3.36967,5.10884,5.53452,8.84608,6.49874,3.73742,.96467,7.73677,.58127,11.99822-1.14974,5.43584-2.20806,9.18693-5.81826,11.2511-10.83079l9.1064,4.61217c-1.14488,3.55976-3.14137,6.70969-5.98441,9.44668-2.84611,2.73982-6.39926,4.97419-10.66071,6.7052-5.43584,2.20806-10.66269,3.07268-15.67766,2.59058-5.01641-.48046-9.43696-2.19271-13.25804-5.13823-3.82433-2.94314-6.72498-6.85598-8.70738-11.73629-1.95686-4.81743-2.62453-9.60094-1.99958-14.35245,.6255-4.75015,2.44422-8.99682,5.45798-12.74073,3.0125-3.74182,6.95781-6.60402,11.83813-8.58642,4.81698-1.95667,9.55824-2.64144,14.22214-2.0531,4.66553,.58715,8.84677,2.37974,12.54606,5.37315,3.69821,2.99595,6.57682,7.02578,8.63382,12.08976,.32636,.80343,.72883,1.97069,1.20777,3.50268Zm-40.91462-2.53885c-1.67324,3.23471-2.04563,6.78635-1.12116,10.65551l28.07131-11.40266c-1.94883-3.38086-4.64115-5.67021-8.07768-6.86462s-7.0368-1.0274-10.80425,.50295c-3.70593,1.50536-6.39605,3.87666-8.06822,7.10883Z" fill="#e21645"/></svg>